<svg width="81" height="11" viewBox="0 0 81 11" fill="none" xmlns="http://www.w3.org/2000/svg">
<path d="M0.0239258 1.16195H2.35726L4.4144 7.66671L6.63345 1.13338H8.53821L10.7287 7.66671L12.7858 1.16195H15.062L11.6811 10.9048H9.77631L7.54774 4.581L5.30964 10.9048H3.40488L0.0239258 1.16195Z" fill="black"/>
<path d="M17.9382 6.02862C17.9427 5.34846 18.0842 4.67618 18.3541 4.05185C18.624 3.42752 19.0168 2.86393 19.5092 2.39467C20.0016 1.9254 20.5834 1.56008 21.2199 1.32048C21.8565 1.08088 22.5348 0.971901 23.2144 1.00004C23.8893 0.967969 24.5637 1.07248 25.1972 1.30732C25.8307 1.54216 26.4103 1.90249 26.9012 2.36672C27.3921 2.83094 27.7842 3.3895 28.0541 4.00892C28.3239 4.62833 28.4659 5.29586 28.4715 5.97147C28.4633 6.65005 28.3187 7.32004 28.0465 7.94169C27.7744 8.56334 27.3801 9.12398 26.8871 9.59033C26.3941 10.0567 25.8124 10.4192 25.1766 10.6565C24.5408 10.8938 23.8638 11.0009 23.1858 10.9715C22.5141 11.0022 21.8431 10.8976 21.2126 10.6639C20.582 10.4302 20.0049 10.0722 19.5154 9.61116C19.026 9.15011 18.6341 8.59541 18.3632 7.97999C18.0922 7.36456 17.9477 6.70097 17.9382 6.02862ZM26.1954 6.02862C26.2043 5.63041 26.1331 5.23447 25.986 4.86433C25.8389 4.49419 25.6189 4.1574 25.339 3.87398C25.0591 3.59057 24.7252 3.36631 24.3569 3.21454C23.9887 3.06277 23.5936 2.98659 23.1954 2.99052C22.8018 2.98275 22.4106 3.05454 22.0455 3.2016C21.6803 3.34866 21.3486 3.56794 21.0702 3.84631C20.7918 4.12468 20.5725 4.4564 20.4255 4.82158C20.2784 5.18676 20.2066 5.57787 20.2144 5.97147C20.2054 6.36968 20.2766 6.76562 20.4237 7.13576C20.5709 7.5059 20.7909 7.84269 21.0707 8.1261C21.3506 8.40952 21.6846 8.63378 22.0529 8.78555C22.4211 8.93731 22.8161 9.0135 23.2144 9.00957C23.6072 9.01604 23.9973 8.94329 24.3614 8.79565C24.7254 8.64802 25.056 8.42853 25.3333 8.15029C25.6107 7.87205 25.8291 7.54078 25.9756 7.17624C26.1221 6.81171 26.1936 6.4214 26.1858 6.02862H26.1954Z" fill="black"/>
<path d="M32.6715 1.16195H34.8525V5.39052L38.8715 1.16195H41.5096L37.4715 5.26671L41.6906 10.8286H39.0715L36.0049 6.71433L34.862 7.87623V10.8286H32.6715V1.16195Z" fill="black"/>
<path d="M45.3763 1.16195H47.5573V10.8381H45.3763V1.16195Z" fill="black"/>
<path d="M52.3001 1.16195H54.3096L58.9573 7.11433V1.16195H61.1096V10.8381H59.2525L54.4906 4.69528V10.8381H52.3001V1.16195Z" fill="black"/>
<path d="M65.7382 1.16195H73.2144V3.06671H67.9096V5.01909H72.5858V6.92385H67.9096V8.9429H73.2906V10.8477H65.7382V1.16195Z" fill="black"/>
<path d="M80.9763 2.81909C80.945 3.22581 80.7614 3.60574 80.4621 3.88291C80.1628 4.16008 79.7699 4.31406 79.362 4.31406C78.9541 4.31406 78.5612 4.16008 78.2619 3.88291C77.9626 3.60574 77.779 3.22581 77.7477 2.81909C77.779 2.41237 77.9626 2.03244 78.2619 1.75528C78.5612 1.47811 78.9541 1.32413 79.362 1.32413C79.7699 1.32413 80.1628 1.47811 80.4621 1.75528C80.7614 2.03244 80.945 2.41237 80.9763 2.81909Z" fill="black"/>
</svg>
